<svg xmlns="http://www.w3.org/2000/svg" xmlns:xlink="http://www.w3.org/1999/xlink" width="600" zoomAndPan="magnify" viewBox="0 0 450 449.999984" height="600" preserveAspectRatio="xMidYMid meet" version="1.2"><defs><clipPath id="30575e6267"><path d="M 148 44.328125 L 301 44.328125 L 301 180 L 148 180 Z M 148 44.328125 "/></clipPath><clipPath id="414ab28ce5"><path d="M 384 230 L 404.929688 230 L 404.929688 287 L 384 287 Z M 384 230 "/></clipPath><clipPath id="160d9c998c"><path d="M 362 213 L 375 213 L 375 222 L 362 222 Z M 362 213 "/></clipPath><clipPath id="70f30a264c"><path d="M 361.050781 225.269531 C 361.828125 226.984375 362.859375 228.53125 364.144531 229.90625 C 366.46875 232.300781 369.4375 232.300781 371.761719 229.90625 C 373.046875 228.53125 374.078125 226.984375 374.855469 225.269531 L 374.472656 213.011719 L 367.980469 218.3125 L 361.492188 213.011719 Z M 361.050781 225.269531 "/></clipPath><clipPath id="f31115291d"><path d="M 44.179688 230 L 65 230 L 65 287 L 44.179688 287 Z M 44.179688 230 "/></clipPath><clipPath id="66bb31ae94"><path d="M 75 213 L 88.246094 213 L 88.246094 222 L 75 222 Z M 75 213 "/></clipPath><clipPath id="b3a75295e5"><path d="M 74.261719 225.269531 C 75.039062 226.984375 76.070312 228.53125 77.355469 229.90625 C 79.671875 232.300781 82.648438 232.300781 84.972656 229.90625 C 86.257812 228.53125 87.289062 226.984375 88.066406 225.269531 L 87.683594 213.011719 L 81.191406 218.3125 L 74.703125 213.011719 Z M 74.261719 225.269531 "/></clipPath></defs><g id="d7339809cf"><path style=" stroke:none;fill-rule:nonzero;fill:#f8bb4b;fill-opacity:1;" d="M 74.875 219.933594 L 73.8125 220.4375 L 73.597656 222.769531 L 75.15625 222.726562 Z M 74.875 219.933594 "/><g clip-rule="nonzero" clip-path="url(#30575e6267)"><path style=" stroke:none;fill-rule:nonzero;fill:#f8bb4b;fill-opacity:1;" d="M 272.984375 179.230469 L 175.929688 179.230469 C 158.109375 151.324219 148.003906 118.898438 148.785156 80.113281 C 178.355469 74.59375 203.15625 62.082031 224.453125 44.371094 C 245.757812 62.054688 270.546875 74.59375 300.125 80.113281 C 300.910156 118.898438 290.804688 151.324219 272.984375 179.230469 Z M 272.984375 179.230469 "/></g><path style=" stroke:none;fill-rule:nonzero;fill:#e1e6f5;fill-opacity:1;" d="M 260.226562 187.082031 L 188.6875 187.082031 C 188.292969 187.082031 187.988281 186.917969 187.773438 186.585938 C 171.992188 161.875 153.992188 128.210938 154.820312 86.863281 C 154.824219 86.617188 154.902344 86.398438 155.058594 86.203125 C 155.210938 86.011719 155.410156 85.886719 155.648438 85.832031 C 177.445312 80.625 197.421875 71.488281 216.714844 57.890625 C 219.074219 56.242188 221.460938 54.488281 223.796875 52.691406 C 223.992188 52.542969 224.210938 52.472656 224.457031 52.472656 C 224.703125 52.472656 224.921875 52.542969 225.117188 52.691406 C 227.539062 54.546875 229.921875 56.296875 232.199219 57.898438 C 251.492188 71.488281 271.46875 80.625 293.265625 85.832031 C 293.503906 85.890625 293.699219 86.015625 293.851562 86.207031 C 294.007812 86.398438 294.085938 86.617188 294.09375 86.863281 C 294.921875 128.230469 276.914062 161.867188 261.132812 186.585938 C 260.921875 186.917969 260.621094 187.082031 260.226562 187.082031 Z M 189.28125 184.917969 L 259.628906 184.917969 C 275.0625 160.695312 292.5 127.871094 291.945312 87.742188 C 270.191406 82.433594 250.238281 73.246094 230.953125 59.671875 C 228.859375 58.195312 226.675781 56.601562 224.460938 54.914062 C 222.296875 56.550781 220.132812 58.152344 217.96875 59.667969 C 198.683594 73.246094 178.730469 82.433594 156.976562 87.742188 C 156.40625 127.855469 173.847656 160.6875 189.28125 184.917969 Z M 189.28125 184.917969 "/><path style=" stroke:none;fill-rule:nonzero;fill:#171f79;fill-opacity:1;" d="M 241.863281 127.472656 L 207.023438 127.472656 C 206.640625 127.472656 206.269531 127.402344 205.917969 127.253906 C 205.566406 127.109375 205.253906 126.898438 204.980469 126.628906 C 204.710938 126.359375 204.503906 126.046875 204.355469 125.695312 C 204.210938 125.339844 204.136719 124.972656 204.136719 124.589844 L 204.136719 96.289062 C 204.136719 95.625 204.167969 94.960938 204.234375 94.300781 C 204.300781 93.636719 204.398438 92.980469 204.527344 92.328125 C 204.65625 91.675781 204.820312 91.03125 205.011719 90.394531 C 205.203125 89.757812 205.429688 89.132812 205.683594 88.519531 C 205.9375 87.902344 206.222656 87.304688 206.535156 86.71875 C 206.847656 86.128906 207.191406 85.5625 207.558594 85.007812 C 207.929688 84.453125 208.324219 83.921875 208.746094 83.40625 C 209.167969 82.894531 209.613281 82.402344 210.085938 81.929688 C 210.554688 81.460938 211.046875 81.015625 211.5625 80.59375 C 212.074219 80.171875 212.609375 79.773438 213.160156 79.40625 C 213.714844 79.035156 214.285156 78.695312 214.871094 78.382812 C 215.457031 78.066406 216.058594 77.785156 216.671875 77.527344 C 217.285156 77.273438 217.910156 77.050781 218.546875 76.859375 C 219.183594 76.664062 219.828125 76.503906 220.480469 76.375 C 221.132812 76.242188 221.789062 76.148438 222.453125 76.082031 C 223.113281 76.015625 223.777344 75.984375 224.441406 75.984375 C 225.109375 75.984375 225.769531 76.015625 226.433594 76.082031 C 227.09375 76.148438 227.753906 76.242188 228.402344 76.375 C 229.054688 76.503906 229.699219 76.664062 230.335938 76.859375 C 230.972656 77.050781 231.597656 77.273438 232.214844 77.527344 C 232.828125 77.785156 233.429688 78.066406 234.015625 78.382812 C 234.601562 78.695312 235.171875 79.035156 235.722656 79.40625 C 236.277344 79.773438 236.8125 80.171875 237.324219 80.59375 C 237.839844 81.015625 238.332031 81.460938 238.800781 81.929688 C 239.269531 82.402344 239.71875 82.894531 240.140625 83.40625 C 240.5625 83.921875 240.957031 84.453125 241.328125 85.007812 C 241.695312 85.5625 242.039062 86.128906 242.351562 86.71875 C 242.664062 87.304688 242.949219 87.902344 243.203125 88.519531 C 243.457031 89.132812 243.679688 89.757812 243.875 90.394531 C 244.066406 91.03125 244.230469 91.675781 244.359375 92.328125 C 244.488281 92.980469 244.585938 93.636719 244.652344 94.300781 C 244.714844 94.960938 244.75 95.625 244.75 96.289062 L 244.75 124.589844 C 244.75 124.972656 244.675781 125.339844 244.527344 125.695312 C 244.382812 126.046875 244.175781 126.359375 243.902344 126.628906 C 243.632812 126.898438 243.320312 127.109375 242.96875 127.253906 C 242.613281 127.402344 242.246094 127.472656 241.863281 127.472656 Z M 209.9375 121.703125 L 238.980469 121.703125 L 238.980469 96.289062 C 238.957031 95.347656 238.847656 94.421875 238.644531 93.5 C 238.445312 92.582031 238.15625 91.691406 237.78125 90.832031 C 237.40625 89.96875 236.953125 89.148438 236.421875 88.375 C 235.886719 87.601562 235.285156 86.886719 234.613281 86.226562 C 233.941406 85.570312 233.210938 84.984375 232.425781 84.46875 C 231.640625 83.953125 230.8125 83.515625 229.941406 83.164062 C 229.070312 82.808594 228.175781 82.539062 227.25 82.359375 C 226.328125 82.179688 225.398438 82.085938 224.457031 82.085938 C 223.515625 82.085938 222.585938 82.179688 221.664062 82.359375 C 220.742188 82.539062 219.84375 82.808594 218.972656 83.164062 C 218.101562 83.515625 217.273438 83.953125 216.488281 84.46875 C 215.703125 84.984375 214.972656 85.570312 214.300781 86.226562 C 213.628906 86.886719 213.027344 87.601562 212.492188 88.375 C 211.960938 89.148438 211.507812 89.96875 211.132812 90.832031 C 210.757812 91.691406 210.46875 92.582031 210.269531 93.5 C 210.066406 94.421875 209.957031 95.347656 209.9375 96.289062 Z M 209.9375 121.703125 "/><path style=" stroke:none;fill-rule:nonzero;fill:#878cf0;fill-opacity:1;" d="M 198.347656 111.476562 L 250.5625 111.476562 L 250.5625 157.179688 L 198.347656 157.179688 Z M 198.347656 111.476562 "/><path style=" stroke:none;fill-rule:nonzero;fill:#171f79;fill-opacity:1;" d="M 231.175781 128.980469 C 231.175781 128.699219 231.15625 128.414062 231.121094 128.132812 C 231.085938 127.851562 231.03125 127.570312 230.957031 127.296875 C 230.886719 127.023438 230.796875 126.753906 230.691406 126.488281 C 230.585938 126.226562 230.460938 125.96875 230.320312 125.722656 C 230.183594 125.472656 230.027344 125.234375 229.859375 125.007812 C 229.6875 124.78125 229.503906 124.5625 229.304688 124.359375 C 229.109375 124.15625 228.898438 123.964844 228.675781 123.789062 C 228.453125 123.609375 228.222656 123.449219 227.976562 123.300781 C 227.734375 123.152344 227.484375 123.019531 227.222656 122.90625 C 226.964844 122.792969 226.695312 122.691406 226.425781 122.613281 C 226.152344 122.53125 225.875 122.46875 225.59375 122.421875 C 225.3125 122.378906 225.03125 122.351562 224.746094 122.339844 C 224.464844 122.332031 224.179688 122.339844 223.898438 122.367188 C 223.613281 122.394531 223.332031 122.441406 223.054688 122.503906 C 222.78125 122.566406 222.507812 122.648438 222.242188 122.746094 C 221.972656 122.84375 221.714844 122.957031 221.460938 123.089844 C 221.210938 123.222656 220.96875 123.367188 220.734375 123.53125 C 220.5 123.691406 220.277344 123.871094 220.070312 124.0625 C 219.859375 124.253906 219.660156 124.457031 219.476562 124.671875 C 219.292969 124.890625 219.121094 125.117188 218.96875 125.355469 C 218.8125 125.59375 218.671875 125.839844 218.550781 126.097656 C 218.425781 126.351562 218.320312 126.617188 218.230469 126.886719 C 218.140625 127.15625 218.066406 127.429688 218.011719 127.707031 C 217.957031 127.988281 217.921875 128.269531 217.90625 128.550781 C 217.886719 128.835938 217.886719 129.121094 217.902344 129.402344 C 217.921875 129.6875 217.957031 129.96875 218.011719 130.25 C 218.066406 130.527344 218.140625 130.800781 218.230469 131.070312 C 218.316406 131.339844 218.425781 131.605469 218.546875 131.859375 C 218.671875 132.117188 218.8125 132.363281 218.964844 132.601562 C 219.121094 132.839844 219.289062 133.066406 219.476562 133.285156 C 219.660156 133.5 219.855469 133.703125 220.066406 133.894531 C 220.277344 134.085938 220.5 134.265625 220.730469 134.425781 L 220.730469 144.371094 C 220.730469 144.867188 220.828125 145.339844 221.015625 145.796875 C 221.203125 146.253906 221.472656 146.65625 221.820312 147.007812 C 222.171875 147.355469 222.574219 147.625 223.027344 147.816406 C 223.484375 148.003906 223.960938 148.101562 224.453125 148.101562 C 224.949219 148.101562 225.421875 148.003906 225.878906 147.816406 C 226.335938 147.625 226.738281 147.355469 227.085938 147.007812 C 227.433594 146.65625 227.703125 146.253906 227.890625 145.796875 C 228.082031 145.339844 228.175781 144.867188 228.175781 144.371094 L 228.175781 134.511719 C 229.109375 133.902344 229.839844 133.105469 230.375 132.125 C 230.90625 131.144531 231.171875 130.097656 231.175781 128.980469 Z M 231.175781 128.980469 "/><path style=" stroke:none;fill-rule:nonzero;fill:#e1e6f5;fill-opacity:1;" d="M 273.8125 392.921875 C 273.8125 393.269531 273.75 393.605469 273.617188 393.925781 C 273.484375 394.246094 273.292969 394.53125 273.046875 394.777344 C 272.804688 395.023438 272.519531 395.210938 272.199219 395.34375 C 271.878906 395.476562 271.542969 395.542969 271.195312 395.542969 L 177.777344 395.542969 C 177.429688 395.542969 177.097656 395.476562 176.773438 395.34375 C 176.453125 395.210938 176.171875 395.019531 175.925781 394.773438 C 175.679688 394.527344 175.492188 394.246094 175.359375 393.925781 C 175.226562 393.605469 175.160156 393.269531 175.160156 392.921875 C 175.160156 392.578125 175.226562 392.242188 175.359375 391.921875 C 175.492188 391.601562 175.679688 391.316406 175.925781 391.074219 C 176.171875 390.828125 176.453125 390.636719 176.773438 390.503906 C 177.097656 390.371094 177.429688 390.304688 177.777344 390.304688 L 187.296875 390.304688 C 188.011719 390.304688 188.722656 390.234375 189.425781 390.097656 C 190.128906 389.957031 190.8125 389.75 191.472656 389.476562 C 192.136719 389.199219 192.765625 388.863281 193.359375 388.464844 C 193.957031 388.070312 194.507812 387.617188 195.015625 387.109375 C 195.523438 386.601562 195.976562 386.050781 196.375 385.457031 C 196.773438 384.859375 197.109375 384.230469 197.382812 383.570312 C 197.65625 382.90625 197.863281 382.226562 198.003906 381.523438 C 198.144531 380.820312 198.214844 380.109375 198.214844 379.394531 L 198.214844 352.507812 L 200.4375 350.550781 L 248.542969 350.550781 L 250.761719 352.507812 L 250.761719 379.394531 C 250.761719 380.109375 250.832031 380.820312 250.972656 381.523438 C 251.113281 382.226562 251.320312 382.90625 251.59375 383.570312 C 251.867188 384.230469 252.203125 384.859375 252.601562 385.457031 C 253 386.050781 253.453125 386.601562 253.960938 387.109375 C 254.464844 387.617188 255.015625 388.070312 255.613281 388.464844 C 256.207031 388.863281 256.835938 389.199219 257.5 389.476562 C 258.160156 389.75 258.84375 389.957031 259.546875 390.097656 C 260.25 390.234375 260.957031 390.304688 261.675781 390.304688 L 271.195312 390.304688 C 271.542969 390.304688 271.878906 390.371094 272.199219 390.503906 C 272.519531 390.636719 272.804688 390.824219 273.046875 391.070312 C 273.292969 391.316406 273.484375 391.597656 273.617188 391.921875 C 273.75 392.242188 273.8125 392.574219 273.8125 392.921875 Z M 273.8125 392.921875 "/><path style=" stroke:none;fill-rule:nonzero;fill:#171f79;fill-opacity:1;" d="M 250.761719 352.507812 L 250.761719 363.46875 L 198.214844 363.46875 L 198.214844 352.507812 L 200.4375 350.550781 L 248.542969 350.550781 Z M 250.761719 352.507812 "/><path style=" stroke:none;fill-rule:nonzero;fill:#878cf0;fill-opacity:1;" d="M 77.570312 168.394531 L 371.402344 168.394531 L 371.402344 354.5625 L 77.570312 354.5625 Z M 77.570312 168.394531 "/><path style=" stroke:none;fill-rule:nonzero;fill:#e1e6f5;fill-opacity:1;" d="M 77.570312 334.449219 L 371.402344 334.449219 L 371.402344 356.34375 L 77.570312 356.34375 Z M 77.570312 334.449219 "/><path style=" stroke:none;fill-rule:nonzero;fill:#171f79;fill-opacity:1;" d="M 253.238281 390.667969 L 195.707031 390.667969 C 195.605469 390.667969 195.523438 390.632812 195.449219 390.558594 C 195.378906 390.488281 195.34375 390.40625 195.34375 390.304688 C 195.347656 390.207031 195.382812 390.121094 195.453125 390.050781 C 195.523438 389.984375 195.605469 389.945312 195.707031 389.945312 L 253.207031 389.945312 C 253.308594 389.945312 253.390625 389.984375 253.460938 390.050781 C 253.53125 390.121094 253.566406 390.207031 253.570312 390.304688 C 253.570312 390.398438 253.539062 390.480469 253.472656 390.550781 C 253.410156 390.621094 253.332031 390.660156 253.238281 390.667969 Z M 253.238281 390.667969 "/><path style=" stroke:none;fill-rule:nonzero;fill:#171f79;fill-opacity:1;" d="M 230.621094 345.394531 C 230.621094 345.796875 230.582031 346.195312 230.503906 346.589844 C 230.421875 346.988281 230.308594 347.371094 230.152344 347.742188 C 230 348.113281 229.808594 348.464844 229.585938 348.800781 C 229.363281 349.136719 229.109375 349.445312 228.824219 349.730469 C 228.539062 350.015625 228.230469 350.269531 227.894531 350.492188 C 227.5625 350.714844 227.207031 350.90625 226.835938 351.058594 C 226.464844 351.214844 226.082031 351.328125 225.6875 351.40625 C 225.289062 351.488281 224.890625 351.527344 224.488281 351.527344 C 224.085938 351.527344 223.6875 351.488281 223.292969 351.40625 C 222.898438 351.328125 222.515625 351.214844 222.144531 351.058594 C 221.773438 350.90625 221.417969 350.714844 221.082031 350.492188 C 220.75 350.269531 220.441406 350.015625 220.15625 349.730469 C 219.871094 349.445312 219.617188 349.136719 219.390625 348.800781 C 219.167969 348.464844 218.980469 348.113281 218.824219 347.742188 C 218.671875 347.371094 218.554688 346.988281 218.476562 346.589844 C 218.398438 346.195312 218.359375 345.796875 218.359375 345.394531 C 218.359375 344.992188 218.398438 344.59375 218.476562 344.199219 C 218.554688 343.804688 218.671875 343.421875 218.824219 343.050781 C 218.980469 342.679688 219.167969 342.324219 219.390625 341.988281 C 219.617188 341.65625 219.871094 341.34375 220.15625 341.0625 C 220.441406 340.777344 220.75 340.523438 221.082031 340.296875 C 221.417969 340.074219 221.773438 339.886719 222.144531 339.730469 C 222.515625 339.578125 222.898438 339.460938 223.292969 339.382812 C 223.6875 339.304688 224.085938 339.265625 224.488281 339.265625 C 224.890625 339.265625 225.289062 339.304688 225.6875 339.382812 C 226.082031 339.460938 226.464844 339.578125 226.835938 339.730469 C 227.207031 339.886719 227.5625 340.074219 227.894531 340.296875 C 228.230469 340.523438 228.539062 340.777344 228.824219 341.0625 C 229.109375 341.34375 229.363281 341.65625 229.585938 341.988281 C 229.808594 342.324219 230 342.679688 230.152344 343.050781 C 230.308594 343.421875 230.421875 343.804688 230.503906 344.199219 C 230.582031 344.59375 230.621094 344.992188 230.621094 345.394531 Z M 230.621094 345.394531 "/><path style=" stroke:none;fill-rule:nonzero;fill:#f89ea3;fill-opacity:1;" d="M 355.449219 385.890625 L 355.035156 395.410156 L 346.382812 395.410156 L 346.382812 385.890625 Z M 355.449219 385.890625 "/><path style=" stroke:none;fill-rule:nonzero;fill:#f89ea3;fill-opacity:1;" d="M 380.4375 385.890625 L 380.847656 395.410156 L 389.503906 395.410156 L 389.503906 385.890625 Z M 380.4375 385.890625 "/><g clip-rule="nonzero" clip-path="url(#414ab28ce5)"><path style=" stroke:none;fill-rule:nonzero;fill:#f8bb4b;fill-opacity:1;" d="M 395.003906 230.195312 C 400.394531 240.089844 403.140625 253.601562 404.84375 268.558594 C 404.921875 269.289062 404.746094 269.953125 404.316406 270.546875 C 400.199219 276.316406 392.742188 281.273438 385.003906 286.183594 L 384.28125 276.9375 L 386.652344 266.839844 L 388.097656 250.628906 C 389.589844 241.589844 391.578125 233.917969 395.003906 230.195312 Z M 395.003906 230.195312 "/></g><path style=" stroke:none;fill-rule:nonzero;fill:#f8bb4b;fill-opacity:1;" d="M 340.894531 230.195312 C 335.503906 240.089844 332.757812 253.601562 331.0625 268.558594 C 330.980469 269.289062 331.152344 269.953125 331.582031 270.546875 C 335.699219 276.316406 343.15625 281.273438 350.894531 286.183594 L 351.617188 276.9375 L 349.246094 266.839844 L 347.800781 250.628906 C 346.308594 241.589844 344.320312 233.917969 340.894531 230.195312 Z M 340.894531 230.195312 "/><path style=" stroke:none;fill-rule:nonzero;fill:#171f79;fill-opacity:1;" d="M 389.546875 340.203125 L 385.59375 284.667969 L 369.84375 284.164062 L 367.945312 284.101562 L 366.054688 284.164062 L 350.304688 284.667969 L 346.351562 340.203125 L 343.988281 386.664062 C 346.066406 387.5 348.226562 388.011719 350.460938 388.199219 C 352.695312 388.382812 354.90625 388.238281 357.097656 387.757812 C 359.535156 371.292969 361.519531 355.824219 361.296875 345.300781 C 363.914062 335.671875 365.796875 321.300781 367.179688 308.910156 L 368.738281 308.910156 C 370.117188 321.300781 372.007812 335.671875 374.617188 345.300781 C 374.394531 355.824219 376.375 371.265625 378.808594 387.757812 C 381 388.238281 383.214844 388.386719 385.449219 388.199219 C 387.683594 388.011719 389.84375 387.5 391.925781 386.664062 Z M 389.546875 340.203125 "/><path style=" stroke:none;fill-rule:nonzero;fill:#171f79;fill-opacity:1;" d="M 355.136719 393.132812 C 352.351562 394.324219 348.644531 394.574219 346.382812 393.132812 C 344.273438 395.179688 341.960938 396.957031 339.4375 398.460938 C 338.820312 398.820312 338.320312 399.304688 337.941406 399.90625 C 337.558594 400.507812 337.335938 401.164062 337.273438 401.875 C 337.207031 402.875 337.21875 403.875 337.308594 404.875 L 356.890625 404.875 C 356.765625 400.367188 356.660156 395.824219 355.136719 393.132812 Z M 355.136719 393.132812 "/><path style=" stroke:none;fill-rule:nonzero;fill:#171f79;fill-opacity:1;" d="M 380.746094 393.132812 C 383.53125 394.324219 387.238281 394.574219 389.503906 393.132812 C 391.609375 395.183594 393.929688 396.960938 396.457031 398.460938 C 397.070312 398.824219 397.570312 399.304688 397.949219 399.90625 C 398.332031 400.507812 398.554688 401.164062 398.617188 401.875 C 398.695312 402.875 398.695312 403.875 398.617188 404.875 L 378.980469 404.875 C 379.117188 400.367188 379.226562 395.824219 380.746094 393.132812 Z M 380.746094 393.132812 "/><path style=" stroke:none;fill-rule:nonzero;fill:#878cf0;fill-opacity:1;" d="M 350.289062 278.097656 L 350.289062 284.65625 C 356.109375 285.933594 362 286.570312 367.960938 286.570312 C 373.917969 286.570312 379.808594 285.933594 385.628906 284.65625 L 385.628906 278.097656 Z M 350.289062 278.097656 "/><path style=" stroke:none;fill-rule:nonzero;fill:#e1e6f5;fill-opacity:1;" d="M 362.414062 280.582031 L 373.484375 280.582031 L 373.484375 287.597656 L 362.414062 287.597656 Z M 362.414062 280.582031 "/><path style=" stroke:none;fill-rule:nonzero;fill:#171f79;fill-opacity:1;" d="M 356.125 279.738281 L 358.246094 279.738281 L 358.246094 287.9375 L 356.125 287.9375 Z M 356.125 279.738281 "/><path style=" stroke:none;fill-rule:nonzero;fill:#171f79;fill-opacity:1;" d="M 377.644531 279.738281 L 379.765625 279.738281 L 379.765625 287.9375 L 377.644531 287.9375 Z M 377.644531 279.738281 "/><path style=" stroke:none;fill-rule:nonzero;fill:#f8bb4b;fill-opacity:1;" d="M 395.003906 230.195312 C 389.597656 244.238281 388.390625 260.898438 388.292969 279.238281 C 381.609375 280.878906 374.832031 281.699219 367.953125 281.699219 C 361.074219 281.699219 354.296875 280.878906 347.613281 279.238281 C 347.507812 260.875 346.308594 244.21875 340.894531 230.195312 C 348.328125 226.503906 357.480469 223.453125 367.953125 221.226562 C 378.417969 223.453125 387.546875 226.503906 395.003906 230.195312 Z M 395.003906 230.195312 "/><path style=" stroke:none;fill-rule:nonzero;fill:#f89ea3;fill-opacity:1;" d="M 361.050781 225.269531 C 361.828125 226.984375 362.859375 228.53125 364.144531 229.90625 C 366.46875 232.300781 369.4375 232.300781 371.761719 229.90625 C 373.046875 228.53125 374.078125 226.984375 374.855469 225.269531 L 374.472656 213.011719 L 367.980469 218.3125 L 361.492188 213.011719 Z M 361.050781 225.269531 "/><g clip-rule="nonzero" clip-path="url(#160d9c998c)"><g clip-rule="nonzero" clip-path="url(#70f30a264c)"><path style=" stroke:none;fill-rule:nonzero;fill:#171f79;fill-opacity:1;" d="M 362.347656 216.199219 C 364.917969 220.949219 369.335938 222.898438 376.152344 221.246094 L 375.539062 213.347656 Z M 362.347656 216.199219 "/></g></g><path style=" stroke:none;fill-rule:nonzero;fill:#f89ea3;fill-opacity:1;" d="M 378.214844 202.582031 C 379.800781 202.445312 380.914062 202.933594 381.417969 204.210938 C 381.769531 205.34375 381.699219 206.449219 381.203125 207.527344 C 380.242188 209.792969 379.378906 210.808594 376.917969 210.226562 Z M 378.214844 202.582031 "/><path style=" stroke:none;fill-rule:nonzero;fill:#f89ea3;fill-opacity:1;" d="M 357.691406 202.582031 C 356.105469 202.445312 354.992188 202.933594 354.488281 204.210938 C 354.136719 205.34375 354.207031 206.449219 354.695312 207.527344 C 355.664062 209.792969 356.527344 210.808594 358.988281 210.226562 Z M 357.691406 202.582031 "/><path style=" stroke:none;fill-rule:nonzero;fill:#f89ea3;fill-opacity:1;" d="M 356.628906 194.632812 C 356.96875 201.210938 357.105469 207.78125 360.128906 214.523438 C 360.375 215.085938 360.730469 215.566406 361.195312 215.96875 C 362.429688 217 363.773438 217.859375 365.234375 218.535156 C 366.097656 218.933594 367.003906 219.132812 367.953125 219.132812 C 368.902344 219.132812 369.808594 218.933594 370.671875 218.535156 C 372.132812 217.859375 373.476562 217 374.710938 215.96875 C 375.175781 215.566406 375.53125 215.085938 375.777344 214.523438 C 378.808594 207.78125 378.9375 201.210938 379.277344 194.632812 Z M 356.628906 194.632812 "/><path style=" stroke:none;fill-rule:nonzero;fill:#171f79;fill-opacity:1;" d="M 356.242188 202.667969 C 356.796875 203.347656 357.335938 205.257812 357.878906 207.472656 L 358.734375 204.988281 C 358.902344 204.507812 358.960938 204.011719 358.917969 203.503906 C 358.6875 201.785156 358.710938 200.066406 358.988281 198.355469 C 359.828125 197.769531 360.3125 196.964844 360.429688 195.945312 L 375.503906 195.945312 C 375.625 196.964844 376.105469 197.769531 376.945312 198.355469 C 377.222656 200.066406 377.25 201.785156 377.019531 203.503906 C 376.972656 204.011719 377.035156 204.507812 377.199219 204.988281 L 378.058594 207.472656 C 378.597656 205.257812 379.140625 203.347656 379.695312 202.667969 C 380.832031 199.34375 381.300781 196.074219 380.601562 192.929688 C 381.769531 192.457031 382.703125 191.695312 383.402344 190.644531 C 382.230469 190.480469 381.136719 190.101562 380.113281 189.511719 C 381.242188 188.949219 382.175781 188.160156 382.917969 187.140625 C 376.96875 186.417969 373.023438 184.804688 367.980469 184.492188 C 367.019531 184.433594 366.054688 184.457031 365.097656 184.574219 C 359.753906 185.222656 356.160156 187.839844 355.671875 191.71875 C 354.515625 195.238281 354.957031 198.910156 356.242188 202.667969 Z M 356.242188 202.667969 "/><path style=" stroke:none;fill-rule:nonzero;fill:#e1e6f5;fill-opacity:1;" d="M 364.015625 211.566406 C 364.238281 212.128906 364.53125 212.648438 364.902344 213.125 C 365.074219 213.339844 365.265625 213.53125 365.480469 213.699219 C 365.695312 213.871094 365.925781 214.011719 366.171875 214.132812 C 366.421875 214.25 366.675781 214.339844 366.945312 214.398438 C 367.210938 214.460938 367.480469 214.488281 367.753906 214.488281 C 368.027344 214.488281 368.296875 214.460938 368.566406 214.398438 C 368.832031 214.339844 369.089844 214.25 369.335938 214.132812 C 369.582031 214.011719 369.8125 213.871094 370.027344 213.699219 C 370.242188 213.53125 370.433594 213.339844 370.605469 213.125 C 370.976562 212.65625 371.269531 212.144531 371.496094 211.589844 Z M 364.015625 211.566406 "/><path style=" stroke:none;fill-rule:nonzero;fill:#171f79;fill-opacity:1;" d="M 373.558594 232.253906 C 372.769531 234.148438 371.519531 235.660156 369.800781 236.78125 L 366.105469 236.78125 C 364.386719 235.660156 363.132812 234.152344 362.347656 232.253906 L 367.953125 229.929688 Z M 373.558594 232.253906 "/><path style=" stroke:none;fill-rule:nonzero;fill:#171f79;fill-opacity:1;" d="M 366.105469 236.78125 L 361.535156 269.558594 L 367.953125 276.9375 L 374.371094 269.558594 L 369.800781 236.78125 Z M 366.105469 236.78125 "/><path style=" stroke:none;fill-rule:nonzero;fill:#f8bb4b;fill-opacity:1;" d="M 356.089844 222.824219 C 357.371094 226.976562 359.117188 230.925781 361.324219 234.667969 L 367.953125 229.929688 L 361.160156 221.78125 L 361.222656 219.617188 C 359.265625 220.308594 357.554688 221.386719 356.089844 222.855469 "/><path style=" stroke:none;fill-rule:nonzero;fill:#f8bb4b;fill-opacity:1;" d="M 379.824219 222.824219 C 378.535156 226.980469 376.78125 230.925781 374.566406 234.667969 L 368.226562 230.140625 L 367.9375 229.929688 L 368.167969 229.648438 L 374.734375 221.773438 L 374.667969 219.609375 C 376.507812 220.253906 378.132812 221.253906 379.542969 222.601562 C 379.613281 222.652344 379.738281 222.738281 379.824219 222.824219 Z M 379.824219 222.824219 "/><path style=" stroke:none;fill-rule:nonzero;fill:#171f79;fill-opacity:1;" d="M 366.828125 201.167969 C 366.894531 201.695312 366.816406 202.199219 366.589844 202.683594 C 366.367188 203.164062 366.03125 203.550781 365.585938 203.84375 C 364.769531 204.386719 363.875 204.699219 362.898438 204.78125 C 362.484375 204.839844 362.089844 204.777344 361.71875 204.585938 C 361.34375 204.398438 361.058594 204.117188 360.863281 203.75 C 360.4375 202.929688 360.265625 202.058594 360.34375 201.140625 Z M 366.828125 201.167969 "/><path style=" stroke:none;fill-rule:nonzero;fill:#171f79;fill-opacity:1;" d="M 369.078125 201.167969 C 369.011719 201.695312 369.089844 202.203125 369.3125 202.683594 C 369.535156 203.167969 369.871094 203.554688 370.320312 203.84375 C 371.132812 204.386719 372.027344 204.699219 373 204.78125 C 373.410156 204.835938 373.796875 204.773438 374.164062 204.589844 C 374.53125 204.40625 374.8125 204.136719 375.015625 203.777344 C 375.433594 202.957031 375.609375 202.085938 375.53125 201.167969 Z M 369.078125 201.167969 "/><path style=" stroke:none;fill-rule:nonzero;fill:#e1e6f5;fill-opacity:1;" d="M 249.558594 218.160156 C 249.558594 218.917969 249.523438 219.671875 249.449219 220.425781 C 249.375 221.179688 249.261719 221.929688 249.113281 222.671875 C 248.964844 223.417969 248.78125 224.152344 248.5625 224.875 C 248.34375 225.601562 248.085938 226.3125 247.796875 227.011719 C 247.507812 227.714844 247.183594 228.398438 246.828125 229.066406 C 246.46875 229.734375 246.082031 230.382812 245.660156 231.011719 C 245.238281 231.644531 244.789062 232.25 244.308594 232.835938 C 243.828125 233.421875 243.316406 233.984375 242.78125 234.519531 C 242.246094 235.054688 241.6875 235.5625 241.101562 236.042969 C 240.515625 236.523438 239.90625 236.976562 239.277344 237.398438 C 238.644531 237.816406 237.996094 238.207031 237.328125 238.5625 C 236.660156 238.921875 235.976562 239.246094 235.277344 239.535156 C 234.578125 239.824219 233.863281 240.078125 233.140625 240.300781 C 232.414062 240.519531 231.679688 240.703125 230.9375 240.851562 C 230.191406 241 229.445312 241.109375 228.691406 241.183594 C 227.9375 241.257812 227.179688 241.296875 226.421875 241.296875 C 225.664062 241.296875 224.910156 241.257812 224.15625 241.183594 C 223.402344 241.109375 222.652344 241 221.910156 240.851562 C 221.164062 240.703125 220.429688 240.519531 219.707031 240.300781 C 218.980469 240.078125 218.269531 239.824219 217.570312 239.535156 C 216.867188 239.246094 216.183594 238.921875 215.515625 238.5625 C 214.847656 238.207031 214.199219 237.816406 213.570312 237.398438 C 212.9375 236.976562 212.332031 236.523438 211.746094 236.042969 C 211.160156 235.5625 210.597656 235.054688 210.0625 234.519531 C 209.527344 233.984375 209.019531 233.421875 208.539062 232.835938 C 208.058594 232.25 207.605469 231.644531 207.183594 231.011719 C 206.765625 230.382812 206.375 229.734375 206.019531 229.066406 C 205.660156 228.398438 205.335938 227.714844 205.046875 227.011719 C 204.757812 226.3125 204.503906 225.601562 204.28125 224.875 C 204.0625 224.152344 203.878906 223.417969 203.730469 222.671875 C 203.582031 221.929688 203.472656 221.179688 203.398438 220.425781 C 203.324219 219.671875 203.285156 218.917969 203.285156 218.160156 C 203.285156 217.402344 203.324219 216.644531 203.398438 215.890625 C 203.472656 215.136719 203.582031 214.390625 203.730469 213.644531 C 203.878906 212.902344 204.0625 212.167969 204.28125 211.445312 C 204.503906 210.71875 204.757812 210.003906 205.046875 209.304688 C 205.335938 208.605469 205.660156 207.921875 206.019531 207.253906 C 206.375 206.585938 206.765625 205.9375 207.183594 205.304688 C 207.605469 204.675781 208.058594 204.066406 208.539062 203.480469 C 209.019531 202.894531 209.527344 202.335938 210.0625 201.800781 C 210.597656 201.265625 211.160156 200.753906 211.746094 200.273438 C 212.332031 199.792969 212.9375 199.34375 213.570312 198.921875 C 214.199219 198.5 214.847656 198.113281 215.515625 197.753906 C 216.183594 197.398438 216.867188 197.074219 217.570312 196.785156 C 218.269531 196.496094 218.980469 196.238281 219.707031 196.019531 C 220.429688 195.800781 221.164062 195.617188 221.910156 195.46875 C 222.652344 195.320312 223.402344 195.207031 224.15625 195.132812 C 224.910156 195.058594 225.664062 195.023438 226.421875 195.023438 C 227.179688 195.023438 227.9375 195.058594 228.691406 195.132812 C 229.445312 195.207031 230.191406 195.320312 230.9375 195.46875 C 231.679688 195.617188 232.414062 195.800781 233.140625 196.019531 C 233.863281 196.238281 234.578125 196.496094 235.277344 196.785156 C 235.976562 197.074219 236.660156 197.398438 237.328125 197.753906 C 237.996094 198.113281 238.644531 198.5 239.277344 198.921875 C 239.90625 199.34375 240.515625 199.792969 241.101562 200.273438 C 241.6875 200.753906 242.246094 201.265625 242.78125 201.800781 C 243.316406 202.335938 243.828125 202.894531 244.308594 203.480469 C 244.789062 204.066406 245.238281 204.675781 245.660156 205.304688 C 246.082031 205.9375 246.46875 206.585938 246.828125 207.253906 C 247.183594 207.921875 247.507812 208.605469 247.796875 209.304688 C 248.085938 210.003906 248.34375 210.71875 248.5625 211.445312 C 248.78125 212.167969 248.964844 212.902344 249.113281 213.644531 C 249.261719 214.390625 249.375 215.136719 249.449219 215.890625 C 249.523438 216.644531 249.558594 217.402344 249.558594 218.160156 Z M 249.558594 218.160156 "/><path style=" stroke:none;fill-rule:nonzero;fill:#171f79;fill-opacity:1;" d="M 232.667969 211.710938 C 232.667969 212.121094 232.628906 212.527344 232.546875 212.929688 C 232.46875 213.332031 232.351562 213.722656 232.191406 214.101562 C 232.035156 214.480469 231.84375 214.839844 231.617188 215.183594 C 231.386719 215.523438 231.128906 215.839844 230.839844 216.128906 C 230.550781 216.417969 230.234375 216.675781 229.890625 216.90625 C 229.550781 217.132812 229.191406 217.324219 228.8125 217.480469 C 228.433594 217.640625 228.042969 217.757812 227.640625 217.835938 C 227.238281 217.917969 226.832031 217.957031 226.421875 217.957031 C 226.011719 217.957031 225.605469 217.917969 225.203125 217.835938 C 224.800781 217.757812 224.410156 217.640625 224.03125 217.480469 C 223.652344 217.324219 223.292969 217.132812 222.953125 216.90625 C 222.613281 216.675781 222.296875 216.417969 222.007812 216.128906 C 221.714844 215.839844 221.457031 215.523438 221.230469 215.183594 C 221 214.839844 220.808594 214.480469 220.652344 214.101562 C 220.496094 213.722656 220.375 213.332031 220.296875 212.929688 C 220.21875 212.527344 220.175781 212.121094 220.175781 211.710938 C 220.175781 211.300781 220.21875 210.894531 220.296875 210.492188 C 220.375 210.089844 220.496094 209.699219 220.652344 209.320312 C 220.808594 208.941406 221 208.582031 221.230469 208.242188 C 221.457031 207.902344 221.714844 207.585938 222.007812 207.296875 C 222.296875 207.003906 222.613281 206.746094 222.953125 206.519531 C 223.292969 206.289062 223.652344 206.097656 224.03125 205.941406 C 224.410156 205.785156 224.800781 205.667969 225.203125 205.585938 C 225.605469 205.507812 226.011719 205.464844 226.421875 205.464844 C 226.832031 205.464844 227.238281 205.507812 227.640625 205.585938 C 228.042969 205.667969 228.433594 205.785156 228.8125 205.941406 C 229.191406 206.097656 229.550781 206.289062 229.890625 206.519531 C 230.234375 206.746094 230.550781 207.003906 230.839844 207.296875 C 231.128906 207.585938 231.386719 207.902344 231.617188 208.242188 C 231.84375 208.582031 232.035156 208.941406 232.191406 209.320312 C 232.351562 209.699219 232.46875 210.089844 232.546875 210.492188 C 232.628906 210.894531 232.667969 211.300781 232.667969 211.710938 Z M 232.667969 211.710938 "/><path style=" stroke:none;fill-rule:nonzero;fill:#171f79;fill-opacity:1;" d="M 237.441406 230.859375 L 215.394531 230.859375 C 215.375 230.125 215.429688 229.394531 215.558594 228.667969 C 215.683594 227.945312 215.882812 227.238281 216.152344 226.554688 C 216.421875 225.867188 216.753906 225.21875 217.152344 224.597656 C 217.550781 223.980469 218.007812 223.40625 218.523438 222.878906 C 219.035156 222.355469 219.597656 221.882812 220.203125 221.46875 C 220.8125 221.054688 221.457031 220.703125 222.132812 220.417969 C 222.8125 220.132812 223.511719 219.914062 224.234375 219.769531 C 224.953125 219.625 225.683594 219.550781 226.417969 219.550781 C 227.15625 219.550781 227.882812 219.625 228.605469 219.769531 C 229.328125 219.914062 230.027344 220.132812 230.703125 220.417969 C 231.382812 220.703125 232.023438 221.054688 232.632812 221.46875 C 233.242188 221.882812 233.800781 222.355469 234.316406 222.878906 C 234.828125 223.40625 235.285156 223.980469 235.683594 224.597656 C 236.082031 225.21875 236.417969 225.867188 236.6875 226.554688 C 236.953125 227.238281 237.152344 227.945312 237.28125 228.667969 C 237.40625 229.394531 237.460938 230.125 237.441406 230.859375 Z M 237.441406 230.859375 "/><path style=" stroke:none;fill-rule:nonzero;fill:#e1e6f5;fill-opacity:1;" d="M 183.734375 248.925781 L 265.375 248.925781 C 265.785156 248.925781 266.191406 248.964844 266.589844 249.046875 C 266.992188 249.125 267.382812 249.246094 267.757812 249.402344 C 268.136719 249.558594 268.496094 249.75 268.835938 249.976562 C 269.175781 250.203125 269.492188 250.460938 269.78125 250.75 C 270.070312 251.039062 270.328125 251.355469 270.554688 251.695312 C 270.785156 252.035156 270.976562 252.394531 271.132812 252.773438 C 271.289062 253.152344 271.40625 253.539062 271.488281 253.941406 C 271.566406 254.34375 271.605469 254.75 271.605469 255.15625 C 271.605469 255.566406 271.566406 255.972656 271.488281 256.375 C 271.40625 256.773438 271.289062 257.164062 271.132812 257.542969 C 270.976562 257.921875 270.785156 258.28125 270.554688 258.621094 C 270.328125 258.960938 270.070312 259.273438 269.78125 259.5625 C 269.492188 259.851562 269.175781 260.113281 268.835938 260.339844 C 268.496094 260.566406 268.136719 260.757812 267.757812 260.914062 C 267.382812 261.070312 266.992188 261.1875 266.589844 261.269531 C 266.191406 261.347656 265.785156 261.390625 265.375 261.390625 L 183.734375 261.390625 C 183.324219 261.390625 182.917969 261.347656 182.519531 261.269531 C 182.117188 261.1875 181.726562 261.070312 181.347656 260.914062 C 180.972656 260.757812 180.613281 260.566406 180.273438 260.339844 C 179.933594 260.113281 179.617188 259.851562 179.328125 259.5625 C 179.039062 259.273438 178.78125 258.960938 178.554688 258.621094 C 178.324219 258.28125 178.132812 257.921875 177.976562 257.542969 C 177.820312 257.164062 177.703125 256.773438 177.621094 256.375 C 177.542969 255.972656 177.503906 255.566406 177.503906 255.15625 C 177.503906 254.75 177.542969 254.34375 177.621094 253.941406 C 177.703125 253.539062 177.820312 253.152344 177.976562 252.773438 C 178.132812 252.394531 178.324219 252.035156 178.554688 251.695312 C 178.78125 251.355469 179.039062 251.039062 179.328125 250.75 C 179.617188 250.460938 179.933594 250.203125 180.273438 249.976562 C 180.613281 249.75 180.972656 249.558594 181.347656 249.402344 C 181.726562 249.246094 182.117188 249.125 182.519531 249.046875 C 182.917969 248.964844 183.324219 248.925781 183.734375 248.925781 Z M 183.734375 248.925781 "/><path style=" stroke:none;fill-rule:nonzero;fill:#171f79;fill-opacity:1;" d="M 268.058594 255.15625 C 268.058594 255.519531 267.988281 255.867188 267.851562 256.203125 C 267.710938 256.539062 267.515625 256.835938 267.257812 257.089844 C 267 257.347656 266.707031 257.542969 266.371094 257.683594 C 266.035156 257.820312 265.6875 257.890625 265.324219 257.890625 C 264.960938 257.890625 264.613281 257.820312 264.277344 257.683594 C 263.945312 257.542969 263.648438 257.347656 263.390625 257.089844 C 263.136719 256.835938 262.9375 256.539062 262.800781 256.203125 C 262.660156 255.867188 262.589844 255.519531 262.589844 255.15625 C 262.589844 254.796875 262.660156 254.445312 262.800781 254.113281 C 262.9375 253.777344 263.136719 253.480469 263.390625 253.226562 C 263.648438 252.96875 263.945312 252.769531 264.277344 252.632812 C 264.613281 252.492188 264.960938 252.425781 265.324219 252.425781 C 265.6875 252.425781 266.035156 252.492188 266.371094 252.632812 C 266.707031 252.769531 267 252.96875 267.257812 253.226562 C 267.515625 253.480469 267.710938 253.777344 267.851562 254.113281 C 267.988281 254.445312 268.058594 254.796875 268.058594 255.15625 Z M 268.058594 255.15625 "/><path style=" stroke:none;fill-rule:nonzero;fill:#e1e6f5;fill-opacity:1;" d="M 183.734375 270.347656 L 265.375 270.347656 C 265.785156 270.347656 266.191406 270.386719 266.589844 270.464844 C 266.992188 270.546875 267.382812 270.664062 267.757812 270.820312 C 268.136719 270.976562 268.496094 271.167969 268.835938 271.398438 C 269.175781 271.625 269.492188 271.882812 269.78125 272.171875 C 270.070312 272.460938 270.328125 272.777344 270.554688 273.117188 C 270.785156 273.457031 270.976562 273.816406 271.132812 274.191406 C 271.289062 274.570312 271.40625 274.960938 271.488281 275.363281 C 271.566406 275.761719 271.605469 276.167969 271.605469 276.578125 C 271.605469 276.988281 271.566406 277.390625 271.488281 277.792969 C 271.40625 278.195312 271.289062 278.585938 271.132812 278.960938 C 270.976562 279.339844 270.785156 279.699219 270.554688 280.039062 C 270.328125 280.378906 270.070312 280.695312 269.78125 280.984375 C 269.492188 281.273438 269.175781 281.53125 268.835938 281.757812 C 268.496094 281.984375 268.136719 282.179688 267.757812 282.335938 C 267.382812 282.492188 266.992188 282.609375 266.589844 282.6875 C 266.191406 282.769531 265.785156 282.808594 265.375 282.808594 L 183.734375 282.808594 C 183.324219 282.808594 182.917969 282.769531 182.519531 282.6875 C 182.117188 282.609375 181.726562 282.492188 181.347656 282.335938 C 180.972656 282.179688 180.613281 281.984375 180.273438 281.757812 C 179.933594 281.53125 179.617188 281.273438 179.328125 280.984375 C 179.039062 280.695312 178.78125 280.378906 178.554688 280.039062 C 178.324219 279.699219 178.132812 279.339844 177.976562 278.960938 C 177.820312 278.585938 177.703125 278.195312 177.621094 277.792969 C 177.542969 277.390625 177.503906 276.988281 177.503906 276.578125 C 177.503906 276.167969 177.542969 275.761719 177.621094 275.363281 C 177.703125 274.960938 177.820312 274.570312 177.976562 274.191406 C 178.132812 273.816406 178.324219 273.457031 178.554688 273.117188 C 178.78125 272.777344 179.039062 272.460938 179.328125 272.171875 C 179.617188 271.882812 179.933594 271.625 180.273438 271.398438 C 180.613281 271.167969 180.972656 270.976562 181.347656 270.820312 C 181.726562 270.664062 182.117188 270.546875 182.519531 270.464844 C 182.917969 270.386719 183.324219 270.347656 183.734375 270.347656 Z M 183.734375 270.347656 "/><path style=" stroke:none;fill-rule:nonzero;fill:#f8bb4b;fill-opacity:1;" d="M 205.78125 292.394531 L 243.335938 292.394531 C 243.742188 292.394531 244.148438 292.433594 244.550781 292.511719 C 244.953125 292.59375 245.339844 292.710938 245.71875 292.867188 C 246.097656 293.023438 246.457031 293.214844 246.796875 293.445312 C 247.136719 293.671875 247.453125 293.929688 247.742188 294.21875 C 248.03125 294.507812 248.289062 294.824219 248.515625 295.164062 C 248.742188 295.503906 248.933594 295.863281 249.09375 296.242188 C 249.25 296.617188 249.367188 297.007812 249.445312 297.410156 C 249.527344 297.8125 249.566406 298.214844 249.566406 298.625 C 249.566406 299.035156 249.527344 299.4375 249.445312 299.839844 C 249.367188 300.242188 249.25 300.632812 249.09375 301.007812 C 248.933594 301.386719 248.742188 301.746094 248.515625 302.085938 C 248.289062 302.425781 248.03125 302.742188 247.742188 303.03125 C 247.453125 303.320312 247.136719 303.578125 246.796875 303.804688 C 246.457031 304.035156 246.097656 304.226562 245.71875 304.382812 C 245.339844 304.539062 244.953125 304.65625 244.550781 304.738281 C 244.148438 304.816406 243.742188 304.855469 243.335938 304.855469 L 205.78125 304.855469 C 205.371094 304.855469 204.96875 304.816406 204.566406 304.738281 C 204.164062 304.65625 203.773438 304.539062 203.398438 304.382812 C 203.019531 304.226562 202.660156 304.035156 202.320312 303.804688 C 201.980469 303.578125 201.664062 303.320312 201.375 303.03125 C 201.085938 302.742188 200.828125 302.425781 200.601562 302.085938 C 200.375 301.746094 200.179688 301.386719 200.023438 301.007812 C 199.867188 300.632812 199.75 300.242188 199.671875 299.839844 C 199.589844 299.4375 199.550781 299.035156 199.550781 298.625 C 199.550781 298.214844 199.589844 297.8125 199.671875 297.410156 C 199.75 297.007812 199.867188 296.617188 200.023438 296.242188 C 200.179688 295.863281 200.375 295.503906 200.601562 295.164062 C 200.828125 294.824219 201.085938 294.507812 201.375 294.21875 C 201.664062 293.929688 201.980469 293.671875 202.320312 293.445312 C 202.660156 293.214844 203.019531 293.023438 203.398438 292.867188 C 203.773438 292.710938 204.164062 292.59375 204.566406 292.511719 C 204.96875 292.433594 205.371094 292.394531 205.78125 292.394531 Z M 205.78125 292.394531 "/><path style=" stroke:none;fill-rule:nonzero;fill:#171f79;fill-opacity:1;" d="M 268.058594 276.578125 C 268.058594 276.941406 267.988281 277.289062 267.851562 277.625 C 267.710938 277.957031 267.515625 278.253906 267.257812 278.511719 C 267 278.765625 266.707031 278.964844 266.371094 279.101562 C 266.035156 279.242188 265.6875 279.3125 265.324219 279.3125 C 264.960938 279.3125 264.613281 279.242188 264.277344 279.101562 C 263.945312 278.964844 263.648438 278.765625 263.390625 278.511719 C 263.136719 278.253906 262.9375 277.957031 262.800781 277.625 C 262.660156 277.289062 262.589844 276.941406 262.589844 276.578125 C 262.589844 276.214844 262.660156 275.867188 262.800781 275.53125 C 262.9375 275.195312 263.136719 274.902344 263.390625 274.644531 C 263.648438 274.386719 263.945312 274.191406 264.277344 274.050781 C 264.613281 273.914062 264.960938 273.84375 265.324219 273.84375 C 265.6875 273.84375 266.035156 273.914062 266.371094 274.050781 C 266.707031 274.191406 267 274.386719 267.257812 274.644531 C 267.515625 274.902344 267.710938 275.195312 267.851562 275.53125 C 267.988281 275.867188 268.058594 276.214844 268.058594 276.578125 Z M 268.058594 276.578125 "/><path style=" stroke:none;fill-rule:nonzero;fill:#171f79;fill-opacity:1;" d="M 255.214844 276.578125 C 255.214844 276.800781 255.171875 277.019531 255.085938 277.226562 C 255 277.433594 254.875 277.617188 254.71875 277.777344 C 254.558594 277.933594 254.375 278.058594 254.167969 278.144531 C 253.960938 278.230469 253.742188 278.273438 253.519531 278.273438 C 253.292969 278.273438 253.078125 278.230469 252.871094 278.144531 C 252.664062 278.058594 252.480469 277.933594 252.320312 277.777344 C 252.160156 277.617188 252.039062 277.433594 251.953125 277.226562 C 251.867188 277.019531 251.824219 276.800781 251.824219 276.578125 C 251.824219 276.351562 251.867188 276.136719 251.953125 275.929688 C 252.039062 275.722656 252.160156 275.539062 252.320312 275.378906 C 252.480469 275.21875 252.664062 275.097656 252.871094 275.011719 C 253.078125 274.925781 253.292969 274.882812 253.519531 274.882812 C 253.742188 274.882812 253.960938 274.925781 254.167969 275.011719 C 254.375 275.097656 254.558594 275.21875 254.71875 275.378906 C 254.875 275.539062 255 275.722656 255.085938 275.929688 C 255.171875 276.136719 255.214844 276.351562 255.214844 276.578125 Z M 255.214844 276.578125 "/><path style=" stroke:none;fill-rule:nonzero;fill:#171f79;fill-opacity:1;" d="M 245.222656 276.578125 C 245.222656 276.800781 245.179688 277.019531 245.09375 277.226562 C 245.007812 277.433594 244.886719 277.617188 244.726562 277.777344 C 244.570312 277.933594 244.386719 278.058594 244.179688 278.144531 C 243.96875 278.230469 243.753906 278.273438 243.53125 278.273438 C 243.304688 278.273438 243.089844 278.230469 242.882812 278.144531 C 242.671875 278.058594 242.488281 277.933594 242.332031 277.777344 C 242.171875 277.617188 242.050781 277.433594 241.964844 277.226562 C 241.878906 277.019531 241.835938 276.800781 241.835938 276.578125 C 241.835938 276.351562 241.878906 276.136719 241.964844 275.929688 C 242.050781 275.722656 242.171875 275.539062 242.332031 275.378906 C 242.488281 275.21875 242.671875 275.097656 242.882812 275.011719 C 243.089844 274.925781 243.304688 274.882812 243.53125 274.882812 C 243.753906 274.882812 243.96875 274.925781 244.179688 275.011719 C 244.386719 275.097656 244.570312 275.21875 244.726562 275.378906 C 244.886719 275.539062 245.007812 275.722656 245.09375 275.929688 C 245.179688 276.136719 245.222656 276.351562 245.222656 276.578125 Z M 245.222656 276.578125 "/><path style=" stroke:none;fill-rule:nonzero;fill:#171f79;fill-opacity:1;" d="M 235.230469 276.578125 C 235.230469 276.800781 235.183594 277.019531 235.097656 277.226562 C 235.011719 277.433594 234.890625 277.617188 234.730469 277.777344 C 234.574219 277.933594 234.390625 278.058594 234.183594 278.144531 C 233.976562 278.230469 233.757812 278.273438 233.535156 278.273438 C 233.308594 278.273438 233.09375 278.230469 232.886719 278.144531 C 232.675781 278.058594 232.496094 277.933594 232.335938 277.777344 C 232.175781 277.617188 232.054688 277.433594 231.96875 277.226562 C 231.882812 277.019531 231.839844 276.800781 231.839844 276.578125 C 231.839844 276.351562 231.882812 276.136719 231.96875 275.929688 C 232.054688 275.722656 232.175781 275.539062 232.335938 275.378906 C 232.496094 275.21875 232.675781 275.097656 232.886719 275.011719 C 233.09375 274.925781 233.308594 274.882812 233.535156 274.882812 C 233.757812 274.882812 233.976562 274.925781 234.183594 275.011719 C 234.390625 275.097656 234.574219 275.21875 234.730469 275.378906 C 234.890625 275.539062 235.011719 275.722656 235.097656 275.929688 C 235.183594 276.136719 235.230469 276.351562 235.230469 276.578125 Z M 235.230469 276.578125 "/><path style=" stroke:none;fill-rule:nonzero;fill:#171f79;fill-opacity:1;" d="M 225.238281 276.578125 C 225.238281 276.800781 225.195312 277.019531 225.109375 277.226562 C 225.023438 277.433594 224.902344 277.617188 224.742188 277.777344 C 224.585938 277.933594 224.402344 278.058594 224.195312 278.144531 C 223.984375 278.230469 223.769531 278.273438 223.546875 278.273438 C 223.320312 278.273438 223.105469 278.230469 222.894531 278.144531 C 222.6875 278.058594 222.503906 277.933594 222.347656 277.777344 C 222.1875 277.617188 222.066406 277.433594 221.980469 277.226562 C 221.894531 277.019531 221.851562 276.800781 221.851562 276.578125 C 221.851562 276.351562 221.894531 276.136719 221.980469 275.929688 C 222.066406 275.722656 222.1875 275.539062 222.347656 275.378906 C 222.503906 275.21875 222.6875 275.097656 222.894531 275.011719 C 223.105469 274.925781 223.320312 274.882812 223.546875 274.882812 C 223.769531 274.882812 223.984375 274.925781 224.195312 275.011719 C 224.402344 275.097656 224.585938 275.21875 224.742188 275.378906 C 224.902344 275.539062 225.023438 275.722656 225.109375 275.929688 C 225.195312 276.136719 225.238281 276.351562 225.238281 276.578125 Z M 225.238281 276.578125 "/><path style=" stroke:none;fill-rule:nonzero;fill:#171f79;fill-opacity:1;" d="M 215.25 276.578125 C 215.25 276.800781 215.207031 277.019531 215.121094 277.226562 C 215.035156 277.433594 214.914062 277.617188 214.753906 277.777344 C 214.59375 277.933594 214.414062 278.058594 214.203125 278.144531 C 213.996094 278.230469 213.78125 278.273438 213.554688 278.273438 C 213.332031 278.273438 213.113281 278.230469 212.90625 278.144531 C 212.699219 278.058594 212.515625 277.933594 212.359375 277.777344 C 212.199219 277.617188 212.078125 277.433594 211.992188 277.226562 C 211.902344 277.019531 211.859375 276.800781 211.859375 276.578125 C 211.859375 276.351562 211.902344 276.136719 211.992188 275.929688 C 212.078125 275.722656 212.199219 275.539062 212.359375 275.378906 C 212.515625 275.21875 212.699219 275.097656 212.90625 275.011719 C 213.113281 274.925781 213.332031 274.882812 213.554688 274.882812 C 213.78125 274.882812 213.996094 274.925781 214.203125 275.011719 C 214.414062 275.097656 214.59375 275.21875 214.753906 275.378906 C 214.914062 275.539062 215.035156 275.722656 215.121094 275.929688 C 215.207031 276.136719 215.25 276.351562 215.25 276.578125 Z M 215.25 276.578125 "/><path style=" stroke:none;fill-rule:nonzero;fill:#171f79;fill-opacity:1;" d="M 205.253906 276.578125 C 205.253906 276.800781 205.210938 277.019531 205.125 277.226562 C 205.039062 277.433594 204.917969 277.617188 204.757812 277.777344 C 204.601562 277.933594 204.417969 278.058594 204.207031 278.144531 C 204 278.230469 203.785156 278.273438 203.558594 278.273438 C 203.335938 278.273438 203.121094 278.230469 202.910156 278.144531 C 202.703125 278.058594 202.519531 277.933594 202.363281 277.777344 C 202.203125 277.617188 202.082031 277.433594 201.996094 277.226562 C 201.910156 277.019531 201.867188 276.800781 201.867188 276.578125 C 201.867188 276.351562 201.910156 276.136719 201.996094 275.929688 C 202.082031 275.722656 202.203125 275.539062 202.363281 275.378906 C 202.519531 275.21875 202.703125 275.097656 202.910156 275.011719 C 203.121094 274.925781 203.335938 274.882812 203.558594 274.882812 C 203.785156 274.882812 204 274.925781 204.207031 275.011719 C 204.417969 275.097656 204.601562 275.21875 204.757812 275.378906 C 204.917969 275.539062 205.039062 275.722656 205.125 275.929688 C 205.210938 276.136719 205.253906 276.351562 205.253906 276.578125 Z M 205.253906 276.578125 "/><path style=" stroke:none;fill-rule:nonzero;fill:#171f79;fill-opacity:1;" d="M 231.710938 256.238281 L 187.433594 256.238281 C 187.289062 256.238281 187.152344 256.210938 187.019531 256.15625 C 186.886719 256.101562 186.769531 256.023438 186.667969 255.921875 C 186.566406 255.820312 186.488281 255.703125 186.433594 255.570312 C 186.378906 255.4375 186.351562 255.300781 186.351562 255.15625 C 186.351562 255.015625 186.378906 254.875 186.433594 254.742188 C 186.488281 254.609375 186.566406 254.496094 186.667969 254.394531 C 186.769531 254.292969 186.886719 254.214844 187.019531 254.160156 C 187.152344 254.101562 187.289062 254.074219 187.433594 254.074219 L 231.710938 254.074219 C 231.851562 254.074219 231.992188 254.101562 232.121094 254.160156 C 232.253906 254.214844 232.371094 254.292969 232.472656 254.394531 C 232.574219 254.496094 232.652344 254.609375 232.707031 254.742188 C 232.761719 254.875 232.789062 255.015625 232.789062 255.15625 C 232.789062 255.300781 232.761719 255.4375 232.707031 255.570312 C 232.652344 255.703125 232.574219 255.820312 232.472656 255.921875 C 232.371094 256.023438 232.253906 256.101562 232.121094 256.15625 C 231.992188 256.210938 231.851562 256.238281 231.710938 256.238281 Z M 231.710938 256.238281 "/><path style=" stroke:none;fill-rule:nonzero;fill:#171f79;fill-opacity:1;" d="M 254.664062 256.238281 L 239.222656 256.238281 C 239.082031 256.238281 238.941406 256.210938 238.808594 256.15625 C 238.675781 256.101562 238.558594 256.023438 238.460938 255.921875 C 238.359375 255.820312 238.28125 255.703125 238.222656 255.570312 C 238.167969 255.4375 238.140625 255.300781 238.140625 255.15625 C 238.140625 255.015625 238.167969 254.875 238.222656 254.742188 C 238.28125 254.609375 238.359375 254.496094 238.460938 254.394531 C 238.558594 254.292969 238.675781 254.214844 238.808594 254.160156 C 238.941406 254.101562 239.082031 254.074219 239.222656 254.074219 L 254.664062 254.074219 C 254.808594 254.074219 254.945312 254.101562 255.078125 254.160156 C 255.210938 254.214844 255.328125 254.292969 255.429688 254.394531 C 255.53125 254.496094 255.609375 254.609375 255.664062 254.742188 C 255.71875 254.875 255.746094 255.015625 255.746094 255.15625 C 255.746094 255.300781 255.71875 255.4375 255.664062 255.570312 C 255.609375 255.703125 255.53125 255.820312 255.429688 255.921875 C 255.328125 256.023438 255.210938 256.101562 255.078125 256.15625 C 254.945312 256.210938 254.808594 256.238281 254.664062 256.238281 Z M 254.664062 256.238281 "/><path style=" stroke:none;fill-rule:nonzero;fill:#171f79;fill-opacity:1;" d="M 388.6875 264.859375 C 388.566406 264.855469 388.472656 264.808594 388.398438 264.714844 C 388.339844 264.632812 388.316406 264.546875 388.332031 264.445312 C 388.34375 264.347656 388.390625 264.269531 388.472656 264.207031 C 389.957031 263.023438 391.640625 262.285156 393.519531 262.003906 C 393.621094 261.988281 393.707031 262.015625 393.789062 262.078125 C 393.867188 262.140625 393.910156 262.21875 393.925781 262.320312 C 393.9375 262.417969 393.910156 262.507812 393.847656 262.585938 C 393.785156 262.664062 393.707031 262.710938 393.605469 262.722656 C 391.851562 262.992188 390.28125 263.679688 388.898438 264.792969 C 388.835938 264.835938 388.765625 264.859375 388.6875 264.859375 Z M 388.6875 264.859375 "/><path style=" stroke:none;fill-rule:nonzero;fill:#171f79;fill-opacity:1;" d="M 347.210938 264.859375 C 347.128906 264.859375 347.058594 264.835938 346.996094 264.785156 C 345.609375 263.675781 344.039062 262.984375 342.285156 262.714844 C 342.1875 262.703125 342.105469 262.660156 342.042969 262.578125 C 341.980469 262.5 341.957031 262.410156 341.96875 262.3125 C 341.980469 262.210938 342.023438 262.132812 342.105469 262.070312 C 342.183594 262.007812 342.273438 261.984375 342.371094 261.996094 C 344.25 262.277344 345.933594 263.015625 347.421875 264.203125 C 347.5 264.261719 347.546875 264.339844 347.5625 264.4375 C 347.574219 264.539062 347.550781 264.625 347.492188 264.707031 C 347.421875 264.800781 347.328125 264.851562 347.210938 264.859375 Z M 347.210938 264.859375 "/><path style=" stroke:none;fill-rule:nonzero;fill:#171f79;fill-opacity:1;" d="M 368.261719 209.46875 C 367.785156 209.46875 367.324219 209.378906 366.878906 209.203125 C 366.785156 209.164062 366.71875 209.101562 366.679688 209.007812 C 366.640625 208.917969 366.640625 208.824219 366.675781 208.734375 C 366.710938 208.640625 366.773438 208.574219 366.863281 208.535156 C 366.957031 208.496094 367.046875 208.496094 367.136719 208.53125 C 367.691406 208.757812 368.261719 208.808594 368.847656 208.691406 C 368.910156 208.679688 368.957031 208.644531 368.984375 208.589844 C 369.015625 208.53125 369.015625 208.472656 368.984375 208.414062 C 368.675781 207.308594 368.472656 206.183594 368.378906 205.039062 C 368.371094 204.941406 368.398438 204.851562 368.464844 204.777344 C 368.527344 204.703125 368.609375 204.660156 368.710938 204.652344 C 368.808594 204.644531 368.898438 204.671875 368.972656 204.738281 C 369.050781 204.800781 369.09375 204.882812 369.101562 204.984375 C 369.1875 206.082031 369.382812 207.160156 369.683594 208.222656 C 369.746094 208.476562 369.710938 208.714844 369.574219 208.941406 C 369.4375 209.171875 369.234375 209.316406 368.96875 209.367188 C 368.738281 209.425781 368.503906 209.460938 368.261719 209.46875 Z M 368.261719 209.46875 "/><path style=" stroke:none;fill-rule:nonzero;fill:#171f79;fill-opacity:1;" d="M 378.214844 202.941406 C 378.097656 202.945312 378 202.898438 377.925781 202.804688 L 376.953125 201.519531 L 358.921875 201.519531 L 357.980469 202.804688 C 357.917969 202.882812 357.839844 202.929688 357.738281 202.941406 C 357.640625 202.953125 357.550781 202.929688 357.472656 202.871094 C 357.394531 202.808594 357.351562 202.730469 357.335938 202.632812 C 357.320312 202.535156 357.34375 202.445312 357.402344 202.363281 L 358.484375 200.921875 C 358.558594 200.828125 358.652344 200.78125 358.773438 200.777344 L 377.132812 200.777344 C 377.253906 200.78125 377.347656 200.828125 377.421875 200.921875 L 378.503906 202.363281 C 378.5625 202.445312 378.585938 202.535156 378.570312 202.632812 C 378.554688 202.730469 378.511719 202.808594 378.433594 202.871094 C 378.367188 202.917969 378.296875 202.941406 378.214844 202.941406 Z M 378.214844 202.941406 "/><path style=" stroke:none;fill-rule:nonzero;fill:#171f79;fill-opacity:1;" d="M 368.113281 282.066406 C 361.15625 282.054688 354.296875 281.238281 347.535156 279.613281 C 347.347656 279.574219 347.253906 279.460938 347.253906 279.269531 C 347.175781 265.609375 346.53125 249.800781 342.507812 236.089844 C 342.480469 235.992188 342.492188 235.902344 342.539062 235.816406 C 342.585938 235.726562 342.660156 235.667969 342.753906 235.640625 C 342.847656 235.617188 342.941406 235.625 343.027344 235.675781 C 343.113281 235.722656 343.171875 235.792969 343.199219 235.886719 C 347.238281 249.589844 347.890625 265.332031 347.976562 278.980469 C 354.542969 280.558594 361.199219 281.347656 367.953125 281.347656 C 374.707031 281.347656 381.363281 280.558594 387.929688 278.980469 C 388.011719 265.652344 388.652344 250.238281 392.472656 236.6875 C 392.5 236.59375 392.554688 236.519531 392.640625 236.472656 C 392.726562 236.421875 392.820312 236.410156 392.914062 236.433594 C 393.011719 236.464844 393.082031 236.519531 393.132812 236.605469 C 393.179688 236.695312 393.191406 236.785156 393.167969 236.882812 C 389.324219 250.449219 388.722656 265.917969 388.652344 279.269531 C 388.648438 279.453125 388.558594 279.570312 388.378906 279.613281 C 381.722656 281.25 374.964844 282.066406 368.113281 282.066406 Z M 368.113281 282.066406 "/><path style=" stroke:none;fill-rule:nonzero;fill:#171f79;fill-opacity:1;" d="M 361.324219 235.027344 L 361.246094 235.027344 C 361.136719 235.003906 361.058594 234.945312 361.007812 234.847656 C 358.777344 231.085938 357.023438 227.109375 355.742188 222.925781 C 355.714844 222.832031 355.722656 222.742188 355.769531 222.652344 C 355.820312 222.566406 355.890625 222.511719 355.988281 222.488281 C 356.082031 222.457031 356.175781 222.46875 356.261719 222.515625 C 356.351562 222.566406 356.40625 222.636719 356.433594 222.730469 C 357.660156 226.730469 359.332031 230.535156 361.441406 234.148438 L 367.742188 229.640625 C 367.824219 229.582031 367.914062 229.5625 368.015625 229.578125 C 368.113281 229.597656 368.191406 229.644531 368.25 229.726562 C 368.304688 229.808594 368.324219 229.898438 368.308594 229.996094 C 368.292969 230.09375 368.242188 230.175781 368.164062 230.234375 L 361.535156 234.964844 C 361.472656 235.007812 361.402344 235.027344 361.324219 235.027344 Z M 361.324219 235.027344 "/><path style=" stroke:none;fill-rule:nonzero;fill:#171f79;fill-opacity:1;" d="M 379.824219 222.824219 L 379.757812 224.269531 C 378.488281 227.957031 376.867188 231.488281 374.898438 234.855469 C 374.847656 234.953125 374.769531 235.011719 374.660156 235.035156 L 374.566406 235.035156 C 374.488281 235.03125 374.417969 235.007812 374.359375 234.964844 L 367.9375 230.382812 L 367.730469 230.234375 C 367.652344 230.171875 367.601562 230.09375 367.585938 229.996094 C 367.574219 229.898438 367.59375 229.808594 367.648438 229.726562 C 367.664062 229.703125 367.683594 229.679688 367.707031 229.664062 L 367.765625 229.625 L 367.851562 229.625 C 367.882812 229.621094 367.910156 229.621094 367.9375 229.625 L 368.046875 229.625 L 368.113281 229.671875 L 374.386719 234.15625 C 376.496094 230.542969 378.167969 226.738281 379.398438 222.738281 C 379.410156 222.683594 379.4375 222.636719 379.476562 222.59375 C 379.613281 222.652344 379.738281 222.738281 379.824219 222.824219 Z M 379.824219 222.824219 "/><path style=" stroke:none;fill-rule:nonzero;fill:#f89ea3;fill-opacity:1;" d="M 68.65625 385.890625 L 68.246094 395.410156 L 59.59375 395.410156 L 59.59375 385.890625 Z M 68.65625 385.890625 "/><path style=" stroke:none;fill-rule:nonzero;fill:#f89ea3;fill-opacity:1;" d="M 93.648438 385.890625 L 94.058594 395.410156 L 102.714844 395.410156 L 102.714844 385.890625 Z M 93.648438 385.890625 "/><path style=" stroke:none;fill-rule:nonzero;fill:#f8bb4b;fill-opacity:1;" d="M 108.214844 230.195312 C 113.601562 240.089844 116.351562 253.601562 118.046875 268.558594 C 118.128906 269.289062 117.957031 269.953125 117.527344 270.546875 C 113.410156 276.316406 105.988281 281.273438 98.210938 286.183594 L 97.492188 276.9375 L 99.863281 266.839844 L 101.308594 250.628906 C 102.800781 241.589844 104.789062 233.917969 108.214844 230.195312 Z M 108.214844 230.195312 "/><g clip-rule="nonzero" clip-path="url(#f31115291d)"><path style=" stroke:none;fill-rule:nonzero;fill:#f8bb4b;fill-opacity:1;" d="M 54.105469 230.195312 C 48.714844 240.089844 45.96875 253.601562 44.25 268.558594 C 44.171875 269.289062 44.347656 269.953125 44.777344 270.546875 C 48.894531 276.316406 56.355469 281.273438 64.09375 286.183594 L 64.8125 276.9375 L 62.441406 266.839844 L 61 250.628906 C 59.519531 241.589844 57.527344 233.917969 54.105469 230.195312 Z M 54.105469 230.195312 "/></g><path style=" stroke:none;fill-rule:nonzero;fill:#171f79;fill-opacity:1;" d="M 102.757812 340.203125 L 98.804688 284.667969 L 83.054688 284.164062 L 81.15625 284.101562 L 79.265625 284.164062 L 63.515625 284.667969 L 59.5625 340.203125 L 57.199219 386.664062 C 59.277344 387.5 61.4375 388.011719 63.671875 388.199219 C 65.90625 388.382812 68.117188 388.238281 70.308594 387.757812 C 72.746094 371.292969 74.730469 355.824219 74.507812 345.300781 C 77.117188 335.671875 79.007812 321.300781 80.382812 308.910156 L 81.949219 308.910156 C 83.328125 321.300781 85.214844 335.671875 87.828125 345.300781 C 87.605469 355.824219 89.585938 371.265625 92.019531 387.757812 C 94.210938 388.238281 96.421875 388.386719 98.660156 388.199219 C 100.894531 388.011719 103.054688 387.5 105.136719 386.664062 Z M 102.757812 340.203125 "/><path style=" stroke:none;fill-rule:nonzero;fill:#171f79;fill-opacity:1;" d="M 68.347656 393.132812 C 65.5625 394.324219 61.855469 394.574219 59.59375 393.132812 C 57.484375 395.1875 55.167969 396.96875 52.640625 398.476562 C 52.023438 398.835938 51.527344 399.316406 51.144531 399.921875 C 50.761719 400.523438 50.539062 401.179688 50.476562 401.886719 C 50.398438 402.886719 50.398438 403.886719 50.476562 404.886719 L 70.113281 404.886719 C 69.976562 400.367188 69.871094 395.824219 68.347656 393.132812 Z M 68.347656 393.132812 "/><path style=" stroke:none;fill-rule:nonzero;fill:#171f79;fill-opacity:1;" d="M 93.957031 393.132812 C 96.742188 394.324219 100.449219 394.574219 102.714844 393.132812 C 104.820312 395.1875 107.136719 396.96875 109.664062 398.476562 C 110.28125 398.835938 110.78125 399.316406 111.160156 399.921875 C 111.542969 400.523438 111.765625 401.179688 111.828125 401.886719 C 111.90625 402.886719 111.90625 403.886719 111.828125 404.886719 L 92.191406 404.886719 C 92.328125 400.367188 92.4375 395.824219 93.957031 393.132812 Z M 93.957031 393.132812 "/><path style=" stroke:none;fill-rule:nonzero;fill:#878cf0;fill-opacity:1;" d="M 63.5 278.097656 L 63.5 284.65625 C 69.320312 285.933594 75.210938 286.574219 81.171875 286.574219 C 87.128906 286.574219 93.019531 285.933594 98.839844 284.65625 L 98.839844 278.097656 Z M 63.5 278.097656 "/><path style=" stroke:none;fill-rule:nonzero;fill:#e1e6f5;fill-opacity:1;" d="M 75.625 280.582031 L 86.695312 280.582031 L 86.695312 287.597656 L 75.625 287.597656 Z M 75.625 280.582031 "/><path style=" stroke:none;fill-rule:nonzero;fill:#171f79;fill-opacity:1;" d="M 69.335938 279.738281 L 71.457031 279.738281 L 71.457031 287.9375 L 69.335938 287.9375 Z M 69.335938 279.738281 "/><path style=" stroke:none;fill-rule:nonzero;fill:#171f79;fill-opacity:1;" d="M 90.855469 279.738281 L 92.976562 279.738281 L 92.976562 287.9375 L 90.855469 287.9375 Z M 90.855469 279.738281 "/><path style=" stroke:none;fill-rule:nonzero;fill:#f8bb4b;fill-opacity:1;" d="M 108.214844 230.195312 C 102.808594 244.238281 101.601562 260.898438 101.5 279.238281 C 94.820312 280.878906 88.042969 281.699219 81.164062 281.699219 C 74.285156 281.699219 67.503906 280.878906 60.824219 279.238281 C 60.71875 260.875 59.519531 244.21875 54.105469 230.195312 C 61.539062 226.503906 70.691406 223.453125 81.164062 221.226562 C 91.628906 223.453125 100.789062 226.503906 108.214844 230.195312 Z M 108.214844 230.195312 "/><path style=" stroke:none;fill-rule:nonzero;fill:#f89ea3;fill-opacity:1;" d="M 74.261719 225.269531 C 75.039062 226.984375 76.070312 228.53125 77.355469 229.90625 C 79.671875 232.300781 82.648438 232.300781 84.972656 229.90625 C 86.257812 228.53125 87.289062 226.984375 88.066406 225.269531 L 87.683594 213.011719 L 81.191406 218.3125 L 74.703125 213.011719 Z M 74.261719 225.269531 "/><g clip-rule="nonzero" clip-path="url(#66bb31ae94)"><g clip-rule="nonzero" clip-path="url(#b3a75295e5)"><path style=" stroke:none;fill-rule:nonzero;fill:#171f79;fill-opacity:1;" d="M 75.558594 216.199219 C 78.128906 220.949219 82.546875 222.898438 89.363281 221.246094 L 88.75 213.347656 Z M 75.558594 216.199219 "/></g></g><path style=" stroke:none;fill-rule:nonzero;fill:#f89ea3;fill-opacity:1;" d="M 91.425781 202.582031 C 93.011719 202.445312 94.125 202.933594 94.628906 204.210938 C 94.980469 205.34375 94.90625 206.449219 94.410156 207.527344 C 93.453125 209.792969 92.585938 210.808594 90.128906 210.226562 Z M 91.425781 202.582031 "/><path style=" stroke:none;fill-rule:nonzero;fill:#f89ea3;fill-opacity:1;" d="M 70.9375 202.582031 C 69.351562 202.445312 68.238281 202.933594 67.734375 204.210938 C 67.378906 205.34375 67.449219 206.449219 67.945312 207.527344 C 68.902344 209.792969 69.777344 210.808594 72.269531 210.226562 Z M 70.9375 202.582031 "/><path style=" stroke:none;fill-rule:nonzero;fill:#f89ea3;fill-opacity:1;" d="M 69.839844 194.632812 C 70.179688 201.210938 70.316406 207.78125 73.339844 214.523438 C 73.585938 215.085938 73.941406 215.566406 74.40625 215.96875 C 75.636719 217 76.984375 217.859375 78.445312 218.535156 C 79.308594 218.933594 80.214844 219.132812 81.164062 219.132812 C 82.113281 219.132812 83.019531 218.933594 83.882812 218.535156 C 85.34375 217.859375 86.6875 217 87.921875 215.96875 C 88.386719 215.566406 88.742188 215.085938 88.988281 214.523438 C 92.011719 207.78125 92.148438 201.210938 92.488281 194.632812 Z M 69.839844 194.632812 "/><path style=" stroke:none;fill-rule:nonzero;fill:#171f79;fill-opacity:1;" d="M 69.449219 202.667969 C 70.007812 203.347656 70.546875 205.257812 71.089844 207.472656 L 71.945312 204.988281 C 72.113281 204.507812 72.171875 204.011719 72.125 203.503906 C 71.898438 201.785156 71.921875 200.066406 72.199219 198.355469 C 73.039062 197.769531 73.519531 196.964844 73.640625 195.945312 L 88.714844 195.945312 C 88.835938 196.964844 89.316406 197.765625 90.15625 198.355469 C 90.441406 200.066406 90.46875 201.785156 90.234375 203.503906 C 90.191406 204.011719 90.25 204.507812 90.417969 204.988281 L 91.273438 207.472656 C 91.816406 205.257812 92.355469 203.347656 92.910156 202.667969 C 94.050781 199.34375 94.519531 196.074219 93.820312 192.929688 C 94.988281 192.457031 95.921875 191.695312 96.617188 190.644531 C 95.4375 190.484375 94.328125 190.105469 93.292969 189.511719 C 94.417969 188.957031 95.355469 188.171875 96.101562 187.160156 C 90.148438 186.441406 86.203125 184.824219 81.164062 184.515625 C 80.199219 184.453125 79.238281 184.480469 78.277344 184.59375 C 72.933594 185.242188 69.34375 187.863281 68.851562 191.742188 C 67.726562 195.238281 68.167969 198.910156 69.449219 202.667969 Z M 69.449219 202.667969 "/><path style=" stroke:none;fill-rule:nonzero;fill:#e1e6f5;fill-opacity:1;" d="M 77.226562 211.566406 C 77.457031 212.132812 77.765625 212.652344 78.148438 213.125 C 78.320312 213.339844 78.511719 213.53125 78.726562 213.699219 C 78.941406 213.871094 79.171875 214.011719 79.421875 214.132812 C 79.667969 214.25 79.921875 214.339844 80.191406 214.398438 C 80.457031 214.460938 80.726562 214.488281 81 214.488281 C 81.273438 214.488281 81.542969 214.460938 81.8125 214.398438 C 82.078125 214.339844 82.335938 214.25 82.582031 214.132812 C 82.828125 214.011719 83.058594 213.871094 83.273438 213.699219 C 83.488281 213.53125 83.683594 213.339844 83.851562 213.125 C 84.222656 212.65625 84.515625 212.144531 84.742188 211.589844 Z M 77.226562 211.566406 "/><path style=" stroke:none;fill-rule:nonzero;fill:#171f79;fill-opacity:1;" d="M 86.804688 232.253906 C 86.019531 234.148438 84.765625 235.660156 83.046875 236.78125 L 79.316406 236.78125 C 77.59375 235.660156 76.34375 234.152344 75.558594 232.253906 L 81.164062 229.929688 Z M 86.804688 232.253906 "/><path style=" stroke:none;fill-rule:nonzero;fill:#171f79;fill-opacity:1;" d="M 79.316406 236.78125 L 74.746094 269.558594 L 81.164062 276.9375 L 87.582031 269.558594 L 83.007812 236.78125 Z M 79.316406 236.78125 "/><path style=" stroke:none;fill-rule:nonzero;fill:#f8bb4b;fill-opacity:1;" d="M 81.164062 229.929688 L 80.875 230.140625 L 74.542969 234.667969 C 72.332031 230.925781 70.589844 226.976562 69.308594 222.824219 L 69.566406 222.582031 C 70.980469 221.242188 72.605469 220.253906 74.441406 219.617188 L 74.371094 221.78125 L 80.933594 229.664062 Z M 81.164062 229.929688 "/><path style=" stroke:none;fill-rule:nonzero;fill:#f8bb4b;fill-opacity:1;" d="M 93.035156 222.824219 C 91.75 226.976562 90.003906 230.925781 87.792969 234.667969 L 81.453125 230.140625 L 81.164062 229.929688 L 81.394531 229.648438 L 87.957031 221.78125 L 87.890625 219.617188 C 89.734375 220.261719 91.359375 221.261719 92.769531 222.609375 C 92.855469 222.652344 92.949219 222.738281 93.035156 222.824219 Z M 93.035156 222.824219 "/><path style=" stroke:none;fill-rule:nonzero;fill:#171f79;fill-opacity:1;" d="M 80.039062 201.167969 C 80.105469 201.695312 80.023438 202.199219 79.800781 202.683594 C 79.578125 203.164062 79.242188 203.550781 78.796875 203.84375 C 77.980469 204.386719 77.085938 204.699219 76.109375 204.78125 C 75.699219 204.835938 75.3125 204.769531 74.945312 204.578125 C 74.578125 204.390625 74.296875 204.113281 74.101562 203.75 C 73.679688 202.929688 73.503906 202.058594 73.582031 201.140625 Z M 80.039062 201.167969 "/><path style=" stroke:none;fill-rule:nonzero;fill:#171f79;fill-opacity:1;" d="M 82.28125 201.167969 C 82.21875 201.695312 82.296875 202.203125 82.523438 202.683594 C 82.746094 203.167969 83.082031 203.554688 83.527344 203.84375 C 84.34375 204.386719 85.238281 204.699219 86.210938 204.78125 C 86.625 204.839844 87.019531 204.773438 87.390625 204.585938 C 87.761719 204.398438 88.046875 204.117188 88.246094 203.75 C 88.667969 202.929688 88.839844 202.058594 88.765625 201.140625 Z M 82.28125 201.167969 "/><path style=" stroke:none;fill-rule:nonzero;fill:#171f79;fill-opacity:1;" d="M 101.898438 264.859375 C 101.777344 264.855469 101.683594 264.808594 101.609375 264.714844 C 101.550781 264.632812 101.527344 264.546875 101.542969 264.445312 C 101.554688 264.347656 101.601562 264.269531 101.683594 264.207031 C 103.167969 263.023438 104.851562 262.285156 106.730469 262.003906 C 106.828125 261.992188 106.917969 262.015625 106.996094 262.078125 C 107.074219 262.140625 107.121094 262.21875 107.132812 262.320312 C 107.144531 262.417969 107.121094 262.507812 107.058594 262.585938 C 106.996094 262.664062 106.914062 262.710938 106.816406 262.722656 C 105.0625 262.992188 103.492188 263.679688 102.105469 264.792969 C 102.042969 264.835938 101.976562 264.859375 101.898438 264.859375 Z M 101.898438 264.859375 "/><path style=" stroke:none;fill-rule:nonzero;fill:#171f79;fill-opacity:1;" d="M 60.421875 264.859375 C 60.339844 264.859375 60.269531 264.835938 60.203125 264.785156 C 58.820312 263.675781 57.25 262.984375 55.496094 262.714844 C 55.394531 262.703125 55.316406 262.65625 55.253906 262.578125 C 55.191406 262.5 55.167969 262.410156 55.179688 262.3125 C 55.191406 262.214844 55.238281 262.132812 55.316406 262.070312 C 55.394531 262.007812 55.484375 261.984375 55.582031 261.996094 C 57.460938 262.277344 59.144531 263.015625 60.628906 264.203125 C 60.710938 264.261719 60.757812 264.339844 60.769531 264.4375 C 60.785156 264.539062 60.761719 264.625 60.703125 264.707031 C 60.632812 264.800781 60.539062 264.851562 60.421875 264.859375 Z M 60.421875 264.859375 "/><path style=" stroke:none;fill-rule:nonzero;fill:#171f79;fill-opacity:1;" d="M 81.472656 209.46875 C 80.996094 209.46875 80.535156 209.378906 80.089844 209.203125 C 79.988281 209.171875 79.914062 209.109375 79.871094 209.015625 C 79.824219 208.921875 79.820312 208.824219 79.855469 208.726562 C 79.894531 208.628906 79.960938 208.5625 80.058594 208.523438 C 80.15625 208.484375 80.253906 208.488281 80.347656 208.53125 C 80.902344 208.757812 81.472656 208.808594 82.058594 208.691406 C 82.121094 208.679688 82.164062 208.644531 82.195312 208.589844 C 82.222656 208.53125 82.222656 208.472656 82.195312 208.414062 C 81.886719 207.308594 81.683594 206.183594 81.589844 205.039062 C 81.582031 204.941406 81.609375 204.851562 81.675781 204.777344 C 81.738281 204.703125 81.820312 204.660156 81.921875 204.652344 C 82.019531 204.644531 82.109375 204.671875 82.183594 204.738281 C 82.261719 204.800781 82.300781 204.882812 82.308594 204.984375 C 82.398438 206.082031 82.59375 207.160156 82.894531 208.222656 C 82.957031 208.476562 82.917969 208.714844 82.785156 208.941406 C 82.644531 209.171875 82.445312 209.316406 82.179688 209.367188 C 81.949219 209.425781 81.710938 209.460938 81.472656 209.46875 Z M 81.472656 209.46875 "/><path style=" stroke:none;fill-rule:nonzero;fill:#171f79;fill-opacity:1;" d="M 91.425781 202.941406 C 91.308594 202.945312 91.210938 202.898438 91.136719 202.804688 L 90.164062 201.519531 L 72.132812 201.519531 L 71.160156 202.804688 C 71.097656 202.882812 71.019531 202.929688 70.921875 202.945312 C 70.820312 202.957031 70.730469 202.933594 70.652344 202.875 C 70.570312 202.8125 70.527344 202.734375 70.511719 202.632812 C 70.5 202.535156 70.523438 202.445312 70.582031 202.363281 L 71.664062 200.921875 C 71.738281 200.828125 71.832031 200.78125 71.953125 200.777344 L 90.34375 200.777344 C 90.464844 200.78125 90.558594 200.828125 90.632812 200.921875 L 91.714844 202.363281 C 91.773438 202.445312 91.792969 202.535156 91.78125 202.632812 C 91.765625 202.730469 91.71875 202.808594 91.640625 202.871094 C 91.578125 202.917969 91.507812 202.941406 91.425781 202.941406 Z M 91.425781 202.941406 "/><path style=" stroke:none;fill-rule:nonzero;fill:#171f79;fill-opacity:1;" d="M 81.320312 282.066406 C 74.363281 282.054688 67.503906 281.238281 60.738281 279.613281 C 60.554688 279.570312 60.464844 279.457031 60.464844 279.269531 C 60.386719 265.609375 59.742188 249.800781 55.71875 236.089844 C 55.691406 235.992188 55.699219 235.902344 55.75 235.816406 C 55.796875 235.726562 55.867188 235.667969 55.964844 235.640625 C 56.058594 235.617188 56.152344 235.625 56.238281 235.675781 C 56.324219 235.722656 56.382812 235.792969 56.410156 235.886719 C 60.441406 249.589844 61.097656 265.332031 61.1875 278.980469 C 67.75 280.558594 74.410156 281.347656 81.164062 281.347656 C 87.917969 281.347656 94.574219 280.558594 101.140625 278.980469 C 101.21875 265.652344 101.863281 250.238281 105.683594 236.6875 C 105.710938 236.59375 105.765625 236.519531 105.851562 236.472656 C 105.9375 236.421875 106.027344 236.410156 106.125 236.433594 C 106.21875 236.464844 106.292969 236.519531 106.339844 236.605469 C 106.390625 236.695312 106.402344 236.785156 106.375 236.882812 C 102.527344 250.449219 101.949219 265.917969 101.863281 279.269531 C 101.859375 279.453125 101.769531 279.570312 101.589844 279.613281 C 94.933594 281.25 88.175781 282.066406 81.320312 282.066406 Z M 81.320312 282.066406 "/><path style=" stroke:none;fill-rule:nonzero;fill:#171f79;fill-opacity:1;" d="M 81.371094 230.226562 L 81.164062 230.375 L 74.746094 234.957031 C 74.683594 235.003906 74.613281 235.027344 74.535156 235.027344 L 74.457031 235.027344 C 74.351562 235.003906 74.277344 234.941406 74.226562 234.847656 C 72.253906 231.480469 70.632812 227.949219 69.355469 224.261719 L 69.300781 222.820312 L 69.558594 222.574219 C 69.597656 222.617188 69.628906 222.664062 69.644531 222.71875 C 70.871094 226.71875 72.539062 230.523438 74.652344 234.132812 L 80.933594 229.648438 L 81.019531 229.648438 C 81.035156 229.640625 81.046875 229.640625 81.0625 229.648438 C 81.15625 229.628906 81.238281 229.648438 81.316406 229.707031 C 81.339844 229.722656 81.355469 229.746094 81.371094 229.769531 C 81.496094 229.921875 81.496094 230.074219 81.371094 230.226562 Z M 81.371094 230.226562 "/><path style=" stroke:none;fill-rule:nonzero;fill:#171f79;fill-opacity:1;" d="M 93.035156 222.824219 L 92.96875 224.269531 C 91.699219 227.957031 90.078125 231.488281 88.109375 234.855469 C 88.058594 234.953125 87.976562 235.011719 87.871094 235.035156 L 87.792969 235.035156 C 87.714844 235.03125 87.644531 235.007812 87.582031 234.964844 L 81.164062 230.382812 L 80.953125 230.234375 C 80.875 230.175781 80.824219 230.09375 80.808594 229.996094 C 80.792969 229.898438 80.816406 229.808594 80.875 229.726562 C 80.890625 229.703125 80.910156 229.683594 80.933594 229.664062 L 81.039062 229.621094 C 81.136719 229.597656 81.226562 229.617188 81.308594 229.675781 L 87.582031 234.164062 C 89.695312 230.550781 91.363281 226.746094 92.585938 222.746094 C 92.601562 222.6875 92.628906 222.640625 92.675781 222.601562 C 92.855469 222.652344 92.949219 222.738281 93.035156 222.824219 Z M 93.035156 222.824219 "/></g></svg>